{
  "source": "C:\\Users\\Peter\\Desktop\\stuff\\MIUN\\quantitative_research\\video_compression\\videos\\BVI-HD\\BVI-HD_CDVL_videos\\ORIG\\Toys_1920x1080_30fps.mp4",
  "output": "C:\\Users\\Peter\\Desktop\\stuff\\MIUN\\quantitative_research\\video_compression\\compressed_videos\\BVI-HD\\vp9\\2\\Toys_1920x1080_30fps_vp9.webm",
  "codec": "vp9",
  "ok": "Input #0, mov,mp4,m4a,3gp,3g2,mj2, from 'C:\\Users\\Peter\\Desktop\\stuff\\MIUN\\quantitative_research\\video_compression\\videos\\BVI-HD\\BVI-HD_CDVL_videos\\ORIG\\Toys_1920x1080_30fps.mp4':\n  Metadata:\n    major_brand     : isom\n    minor_version   : 512\n    compatible_brands: isomiso2avc1mp41\n    encoder         : Lavf54.28.101\n  Duration: 00:00:05.00, start: 0.000000, bitrate: 270887 kb/s\n  Stream #0:0[0x1](und): Video: h264 (High 4:4:4 Predictive) (avc1 / 0x31637661), yuv420p(progressive), 1920x1080, 270883 kb/s, 30 fps, 30 tbr, 30 tbn (default)\n    Metadata:\n      handler_name    : VideoHandler\n      vendor_id       : [0][0][0][0]\n[out#0/webm @ 00000213505a9280] Codec AVOption b:a (set bitrate (in bits/s)) has not been used for any stream. The most likely reason is either wrong type (e.g. a video option with no video streams) or that it is a private option of some decoder which was not actually used for any stream.\nStream mapping:\n  Stream #0:0 -> #0:0 (h264 (native) -> vp9 (libvpx-vp9))\nPress [q] to stop, [?] for help\n[libvpx-vp9 @ 00000213510f00c0] v1.15.2-100-g40561f514\nOutput #0, webm, to 'C:\\Users\\Peter\\Desktop\\stuff\\MIUN\\quantitative_research\\video_compression\\compressed_videos\\BVI-HD\\vp9\\2\\Toys_1920x1080_30fps_vp9.webm':\n  Metadata:\n    major_brand     : isom\n    minor_version   : 512\n    compatible_brands: isomiso2avc1mp41\n    encoder         : Lavf62.3.100\n  Stream #0:0(und): Video: vp9, yuv420p(tv, progressive), 1920x1080, q=2-31, 2000 kb/s, 30 fps, 1k tbn (default)\n    Metadata:\n      encoder         : Lavc62.11.100 libvpx-vp9\n      handler_name    : VideoHandler\n      vendor_id       : [0][0][0][0]\n    Side data:\n      cpb: bitrate max/min/avg: 0/0/0 buffer size: 2000000 vbv_delay: N/A\nframe=    0 fps=0.0 q=0.0 size=       0KiB time=N/A bitrate=N/A speed=N/A elapsed=0:00:00.53    \nframe=    5 fps=4.3 q=55.0 size=       1KiB time=00:00:00.16 bitrate=  30.4kbits/s speed=0.144x elapsed=0:00:01.15    \nframe=   10 fps=5.9 q=54.0 size=       1KiB time=00:00:00.33 bitrate=  15.2kbits/s speed=0.198x elapsed=0:00:01.68    \nframe=   14 fps=6.3 q=52.0 size=       1KiB time=00:00:00.46 bitrate=  10.9kbits/s speed=0.21x elapsed=0:00:02.22    \nframe=   19 fps=6.9 q=53.0 size=       1KiB time=00:00:00.63 bitrate=   8.0kbits/s speed=0.23x elapsed=0:00:02.75    \nframe=   24 fps=7.3 q=51.0 size=       1KiB time=00:00:00.76 bitrate=   6.6kbits/s speed=0.233x elapsed=0:00:03.28    \nframe=   28 fps=7.3 q=52.0 size=       1KiB time=00:00:00.93 bitrate=   5.4kbits/s speed=0.244x elapsed=0:00:03.82    \nframe=   33 fps=7.6 q=50.0 size=       1KiB time=00:00:01.10 bitrate=   4.6kbits/s speed=0.253x elapsed=0:00:04.34    \nframe=   37 fps=7.6 q=51.0 size=       1KiB time=00:00:01.23 bitrate=   4.1kbits/s speed=0.254x elapsed=0:00:04.85    \nframe=   42 fps=7.8 q=50.0 size=       1KiB time=00:00:01.40 bitrate=   3.6kbits/s speed=0.26x elapsed=0:00:05.38    \nframe=   46 fps=7.8 q=50.0 size=       1KiB time=00:00:01.53 bitrate=   3.3kbits/s speed=0.259x elapsed=0:00:05.92    \nframe=   50 fps=7.7 q=49.0 size=       1KiB time=00:00:01.66 bitrate=   3.0kbits/s speed=0.258x elapsed=0:00:06.45    \nframe=   54 fps=7.7 q=50.0 size=       1KiB time=00:00:01.80 bitrate=   2.8kbits/s speed=0.258x elapsed=0:00:06.96    \nframe=   58 fps=7.7 q=49.0 size=       1KiB time=00:00:01.93 bitrate=   2.6kbits/s speed=0.258x elapsed=0:00:07.49    \nframe=   62 fps=7.7 q=49.0 size=       1KiB time=00:00:02.06 bitrate=   2.5kbits/s speed=0.257x elapsed=0:00:08.03    \nframe=   67 fps=7.8 q=49.0 size=       1KiB time=00:00:02.23 bitrate=   2.3kbits/s speed=0.261x elapsed=0:00:08.55    \nframe=   70 fps=7.7 q=49.0 size=       1KiB time=00:00:02.33 bitrate=   2.2kbits/s speed=0.256x elapsed=0:00:09.10    \nframe=   75 fps=7.8 q=49.0 size=       1KiB time=00:00:02.50 bitrate=   2.0kbits/s speed=0.26x elapsed=0:00:09.62    \nframe=   79 fps=7.8 q=48.0 size=       1KiB time=00:00:02.63 bitrate=   1.9kbits/s speed=0.26x elapsed=0:00:10.13    \nframe=   83 fps=7.8 q=40.0 size=       1KiB time=00:00:02.76 bitrate=   1.8kbits/s speed=0.26x elapsed=0:00:10.65    \nframe=   88 fps=7.9 q=49.0 size=       1KiB time=00:00:02.93 bitrate=   1.7kbits/s speed=0.263x elapsed=0:00:11.16    \nframe=   92 fps=7.9 q=49.0 size=       1KiB time=00:00:03.06 bitrate=   1.7kbits/s speed=0.262x elapsed=0:00:11.69    \nframe=   97 fps=7.9 q=48.0 size=       1KiB time=00:00:03.23 bitrate=   1.6kbits/s speed=0.265x elapsed=0:00:12.20    \nframe=  101 fps=7.9 q=40.0 size=       1KiB time=00:00:03.36 bitrate=   1.5kbits/s speed=0.265x elapsed=0:00:12.71    \nframe=  106 fps=8.0 q=49.0 size=       1KiB time=00:00:03.53 bitrate=   1.4kbits/s speed=0.267x elapsed=0:00:13.23    \nframe=  111 fps=8.1 q=49.0 size=       1KiB time=00:00:03.70 bitrate=   1.4kbits/s speed=0.269x elapsed=0:00:13.76    \nframe=  116 fps=8.1 q=48.0 size=       1KiB time=00:00:03.86 bitrate=   1.3kbits/s speed=0.27x elapsed=0:00:14.29    \nframe=  120 fps=8.1 q=50.0 size=       1KiB time=00:00:04.00 bitrate=   1.3kbits/s speed=0.27x elapsed=0:00:14.80    \nframe=  125 fps=8.2 q=50.0 size=       1KiB time=00:00:04.16 bitrate=   1.2kbits/s speed=0.272x elapsed=0:00:15.32    \nframe=  126 fps=8.0 q=48.0 size=       1KiB time=00:00:04.20 bitrate=   1.2kbits/s speed=0.265x elapsed=0:00:15.84    \nframe=  126 fps=7.7 q=48.0 size=       1KiB time=00:00:04.20 bitrate=   1.2kbits/s speed=0.257x elapsed=0:00:16.35    \nframe=  126 fps=7.5 q=48.0 size=       1KiB time=00:00:04.20 bitrate=   1.2kbits/s speed=0.249x elapsed=0:00:16.88    \nframe=  126 fps=7.2 q=48.0 size=       1KiB time=00:00:04.20 bitrate=   1.2kbits/s speed=0.242x elapsed=0:00:17.38    \nframe=  126 fps=7.0 q=48.0 size=       1KiB time=00:00:04.20 bitrate=   1.2kbits/s speed=0.235x elapsed=0:00:17.90    \n[out#0/webm @ 00000213505a9280] video:1325KiB audio:0KiB subtitle:0KiB other streams:0KiB global headers:0KiB muxing overhead: 0.130343%\nframe=  150 fps=8.3 q=49.0 Lsize=    1327KiB time=00:00:05.00 bitrate=2174.3kbits/s speed=0.276x elapsed=0:00:18.10    \n",
  "seconds": 18.393138885498047,
  "probe_out": {}
}